<?xml version="1.0" standalone="no"?>
<!DOCTYPE svg PUBLIC "-//W3C//DTD SVG 20010904//EN"
 "http://www.w3.org/TR/2001/REC-SVG-20010904/DTD/svg10.dtd">
<svg version="1.0" xmlns="http://www.w3.org/2000/svg"
 width="512.000000pt" height="512.000000pt" viewBox="0 0 512.000000 512.000000"
 preserveAspectRatio="xMidYMid meet">

<g transform="translate(0.000000,512.000000) scale(0.100000,-0.100000)"
fill="#000000" stroke="none">
<path d="M542 5036 c-153 -38 -312 -162 -384 -301 -73 -142 -68 28 -68 -2177
0 -1747 2 -1991 15 -2042 42 -162 166 -313 317 -384 45 -22 107 -45 136 -51
32 -7 185 -11 387 -11 l335 0 0 773 c0 424 3 850 7 945 l6 172 1021 0 c1133 0
1097 -2 1236 66 103 51 213 161 264 264 117 240 74 504 -113 691 -55 55 -96
86 -151 113 -139 68 -103 66 -1236 66 l-1021 0 -6 167 c-4 91 -7 516 -7 945
l0 778 -342 -1 c-242 0 -359 -4 -396 -13z"/>
<path d="M1760 4450 l0 -601 1388 3 1387 3 81 27 c196 67 348 228 399 423 20
77 19 220 -1 299 -53 205 -233 383 -435 431 -55 13 -249 15 -1441 15 l-1378 0
0 -600z"/>
<path d="M1760 670 l0 -600 1378 0 c1192 0 1386 2 1441 15 202 48 382 226 435
431 20 79 21 222 1 299 -24 92 -72 179 -139 252 -76 83 -156 135 -260 171
l-81 27 -1387 3 -1388 3 0 -601z"/>
</g>
</svg>
